<svg width="206" height="48" viewBox="0 0 206 48" fill="none" xmlns="http://www.w3.org/2000/svg">
<path d="M25.0008 24C25.0008 27.3137 22.3145 30 19.0008 30C15.6871 30 13.0008 27.3137 13.0008 24C13.0008 20.6863 15.6871 18 19.0008 18C22.3145 18 25.0008 20.6863 25.0008 24Z" fill="#FF4405"/>
<path d="M25.0008 10C25.0008 13.3137 22.3145 16 19.0008 16C15.6871 16 13.0008 13.3137 13.0008 10C13.0008 6.68629 15.6871 4 19.0008 4C22.3145 4 25.0008 6.68629 25.0008 10Z" fill="#FF4405"/>
<path d="M37.125 31C37.125 34.3137 34.4387 37 31.125 37C27.8113 37 25.125 34.3137 25.125 31C25.125 27.6863 27.8113 25 31.125 25C34.4387 25 37.125 27.6863 37.125 31Z" fill="#FF4405"/>
<path d="M37.127 17.0002C37.127 20.3139 34.4407 23.0002 31.127 23.0002C27.8132 23.0002 25.127 20.3139 25.127 17.0002C25.127 13.6865 27.8132 11.0002 31.127 11.0002C34.4407 11.0002 37.127 13.6865 37.127 17.0002Z" fill="#FF4405"/>
<path d="M25.0008 38C25.0008 41.3137 22.3145 44 19.0008 44C15.6871 44 13.0008 41.3137 13.0008 38C13.0008 34.6863 15.6871 32 19.0008 32C22.3145 32 25.0008 34.6863 25.0008 38Z" fill="#FF4405"/>
<path d="M12.877 17C12.877 20.3137 10.1907 23 6.87695 23C3.56324 23 0.876953 20.3137 0.876953 17C0.876953 13.6863 3.56324 11 6.87695 11C10.1907 11 12.877 13.6863 12.877 17Z" fill="#FF4405"/>
<path d="M12.875 30.9997C12.875 34.3134 10.1887 36.9997 6.875 36.9997C3.56129 36.9997 0.875 34.3134 0.875 30.9997C0.875 27.686 3.56129 24.9997 6.875 24.9997C10.1887 24.9997 12.875 27.686 12.875 30.9997Z" fill="#FF4405"/>
<path d="M54.0341 35.5H48.7614L56.7955 12.2273H63.1364L71.1591 35.5H65.8864L60.0568 17.5455H59.875L54.0341 35.5ZM53.7045 26.3523H66.1591V30.1932H53.7045V26.3523ZM87.9858 23.0227L83.554 23.2955C83.4782 22.9167 83.3153 22.5758 83.0653 22.2727C82.8153 21.9621 82.4858 21.7159 82.0767 21.5341C81.6752 21.3447 81.1941 21.25 80.6335 21.25C79.8835 21.25 79.2509 21.4091 78.7358 21.7273C78.2206 22.0379 77.9631 22.4545 77.9631 22.9773C77.9631 23.3939 78.1297 23.7462 78.4631 24.0341C78.7964 24.322 79.3684 24.553 80.179 24.7273L83.3381 25.3636C85.035 25.7121 86.3002 26.2727 87.1335 27.0455C87.9669 27.8182 88.3835 28.8333 88.3835 30.0909C88.3835 31.2348 88.0464 32.2386 87.3722 33.1023C86.7055 33.9659 85.7888 34.6402 84.6222 35.125C83.4631 35.6023 82.1259 35.8409 80.6108 35.8409C78.3002 35.8409 76.4593 35.3598 75.0881 34.3977C73.7244 33.428 72.9252 32.1098 72.6903 30.4432L77.4517 30.1932C77.5956 30.8977 77.9441 31.4356 78.4972 31.8068C79.0502 32.1705 79.7585 32.3523 80.6222 32.3523C81.4706 32.3523 82.1525 32.1894 82.6676 31.8636C83.1903 31.5303 83.4555 31.1023 83.4631 30.5795C83.4555 30.1402 83.2699 29.7803 82.9062 29.5C82.5426 29.2121 81.982 28.9924 81.2244 28.8409L78.2017 28.2386C76.4972 27.8977 75.2282 27.3068 74.3949 26.4659C73.5691 25.625 73.1562 24.553 73.1562 23.25C73.1562 22.1288 73.4593 21.1629 74.0653 20.3523C74.679 19.5417 75.5388 18.9167 76.6449 18.4773C77.7585 18.0379 79.0616 17.8182 80.554 17.8182C82.7585 17.8182 84.4934 18.2841 85.7585 19.2159C87.0313 20.1477 87.7737 21.4167 87.9858 23.0227ZM105.955 23.0227L101.523 23.2955C101.447 22.9167 101.284 22.5758 101.034 22.2727C100.784 21.9621 100.455 21.7159 100.045 21.5341C99.6439 21.3447 99.1629 21.25 98.6023 21.25C97.8523 21.25 97.2197 21.4091 96.7045 21.7273C96.1894 22.0379 95.9318 22.4545 95.9318 22.9773C95.9318 23.3939 96.0985 23.7462 96.4318 24.0341C96.7652 24.322 97.3371 24.553 98.1477 24.7273L101.307 25.3636C103.004 25.7121 104.269 26.2727 105.102 27.0455C105.936 27.8182 106.352 28.8333 106.352 30.0909C106.352 31.2348 106.015 32.2386 105.341 33.1023C104.674 33.9659 103.758 34.6402 102.591 35.125C101.432 35.6023 100.095 35.8409 98.5795 35.8409C96.2689 35.8409 94.428 35.3598 93.0568 34.3977C91.6932 33.428 90.8939 32.1098 90.6591 30.4432L95.4205 30.1932C95.5644 30.8977 95.9129 31.4356 96.4659 31.8068C97.0189 32.1705 97.7273 32.3523 98.5909 32.3523C99.4394 32.3523 100.121 32.1894 100.636 31.8636C101.159 31.5303 101.424 31.1023 101.432 30.5795C101.424 30.1402 101.239 29.7803 100.875 29.5C100.511 29.2121 99.9508 28.9924 99.1932 28.8409L96.1705 28.2386C94.4659 27.8977 93.197 27.3068 92.3636 26.4659C91.5379 25.625 91.125 24.553 91.125 23.25C91.125 22.1288 91.428 21.1629 92.0341 20.3523C92.6477 19.5417 93.5076 18.9167 94.6136 18.4773C95.7273 18.0379 97.0303 17.8182 98.5227 17.8182C100.727 17.8182 102.462 18.2841 103.727 19.2159C105 20.1477 105.742 21.4167 105.955 23.0227ZM117.355 35.8409C115.56 35.8409 114.014 35.4773 112.719 34.75C111.431 34.0152 110.438 32.9773 109.741 31.6364C109.045 30.2879 108.696 28.6932 108.696 26.8523C108.696 25.0568 109.045 23.4811 109.741 22.125C110.438 20.7689 111.42 19.7121 112.685 18.9545C113.957 18.197 115.45 17.8182 117.162 17.8182C118.313 17.8182 119.385 18.0038 120.378 18.375C121.378 18.7386 122.249 19.2879 122.991 20.0227C123.741 20.7576 124.325 21.6818 124.741 22.7955C125.158 23.9015 125.366 25.197 125.366 26.6818V28.0114H110.628V25.0114H120.81C120.81 24.3144 120.658 23.697 120.355 23.1591C120.052 22.6212 119.632 22.2008 119.094 21.8977C118.563 21.5871 117.946 21.4318 117.241 21.4318C116.507 21.4318 115.855 21.6023 115.287 21.9432C114.726 22.2765 114.287 22.7273 113.969 23.2955C113.651 23.8561 113.488 24.4811 113.48 25.1705V28.0227C113.48 28.8864 113.639 29.6326 113.957 30.2614C114.283 30.8902 114.741 31.375 115.332 31.7159C115.923 32.0568 116.624 32.2273 117.435 32.2273C117.973 32.2273 118.465 32.1515 118.912 32C119.359 31.8485 119.741 31.6212 120.06 31.3182C120.378 31.0152 120.62 30.6439 120.787 30.2045L125.264 30.5C125.037 31.5758 124.571 32.5152 123.866 33.3182C123.17 34.1136 122.268 34.7348 121.162 35.1818C120.063 35.6212 118.795 35.8409 117.355 35.8409ZM137.81 18.0455V21.6818H127.298V18.0455H137.81ZM129.685 13.8636H134.526V30.1364C134.526 30.5833 134.594 30.9318 134.73 31.1818C134.866 31.4242 135.056 31.5947 135.298 31.6932C135.548 31.7917 135.836 31.8409 136.162 31.8409C136.389 31.8409 136.616 31.822 136.844 31.7841C137.071 31.7386 137.245 31.7045 137.366 31.6818L138.128 35.2841C137.885 35.3598 137.545 35.447 137.105 35.5455C136.666 35.6515 136.132 35.7159 135.503 35.7386C134.336 35.7841 133.313 35.6288 132.435 35.2727C131.563 34.9167 130.885 34.3636 130.401 33.6136C129.916 32.8636 129.677 31.9167 129.685 30.7727V13.8636ZM156.486 19.75C156.327 19.197 156.103 18.7083 155.815 18.2841C155.527 17.8523 155.175 17.4886 154.759 17.1932C154.349 16.8902 153.88 16.6591 153.349 16.5C152.827 16.3409 152.247 16.2614 151.611 16.2614C150.421 16.2614 149.376 16.5568 148.474 17.1477C147.58 17.7386 146.884 18.5985 146.384 19.7273C145.884 20.8485 145.634 22.2197 145.634 23.8409C145.634 25.4621 145.88 26.8409 146.372 27.9773C146.865 29.1136 147.562 29.9811 148.463 30.5795C149.365 31.1705 150.429 31.4659 151.656 31.4659C152.77 31.4659 153.721 31.2689 154.509 30.875C155.304 30.4735 155.91 29.9091 156.327 29.1818C156.751 28.4545 156.963 27.5947 156.963 26.6023L157.963 26.75H151.963V23.0455H161.702V25.9773C161.702 28.0227 161.27 29.7803 160.406 31.25C159.543 32.7121 158.353 33.8409 156.838 34.6364C155.323 35.4242 153.588 35.8182 151.634 35.8182C149.452 35.8182 147.535 35.3371 145.884 34.375C144.232 33.4053 142.944 32.0303 142.02 30.25C141.103 28.4621 140.645 26.3409 140.645 23.8864C140.645 22 140.918 20.3182 141.463 18.8409C142.016 17.3561 142.789 16.0985 143.781 15.0682C144.774 14.0379 145.929 13.2538 147.247 12.7159C148.565 12.178 149.993 11.9091 151.531 11.9091C152.849 11.9091 154.077 12.1023 155.213 12.4886C156.349 12.8674 157.357 13.4053 158.236 14.1023C159.122 14.7992 159.846 15.6288 160.406 16.5909C160.967 17.5455 161.327 18.5985 161.486 19.75H156.486ZM165.307 35.5V18.0455H170V21.0909H170.182C170.5 20.0076 171.034 19.1894 171.784 18.6364C172.534 18.0758 173.398 17.7955 174.375 17.7955C174.617 17.7955 174.879 17.8106 175.159 17.8409C175.439 17.8712 175.686 17.9129 175.898 17.9659V22.2614C175.67 22.1932 175.356 22.1326 174.955 22.0795C174.553 22.0265 174.186 22 173.852 22C173.14 22 172.504 22.1553 171.943 22.4659C171.39 22.7689 170.951 23.1932 170.625 23.7386C170.307 24.2841 170.148 24.9129 170.148 25.625V35.5H165.307ZM178.401 35.5V18.0455H183.241V35.5H178.401ZM180.832 15.7955C180.113 15.7955 179.495 15.5568 178.98 15.0795C178.473 14.5947 178.219 14.0152 178.219 13.3409C178.219 12.6742 178.473 12.1023 178.98 11.625C179.495 11.1402 180.113 10.8977 180.832 10.8977C181.552 10.8977 182.166 11.1402 182.673 11.625C183.188 12.1023 183.446 12.6742 183.446 13.3409C183.446 14.0152 183.188 14.5947 182.673 15.0795C182.166 15.5568 181.552 15.7955 180.832 15.7955ZM193.551 35.7841C192.225 35.7841 191.025 35.4432 189.949 34.7614C188.881 34.072 188.032 33.0606 187.403 31.7273C186.782 30.3864 186.472 28.7424 186.472 26.7955C186.472 24.7955 186.794 23.1326 187.438 21.8068C188.081 20.4735 188.938 19.4773 190.006 18.8182C191.081 18.1515 192.259 17.8182 193.54 17.8182C194.517 17.8182 195.331 17.9848 195.983 18.3182C196.642 18.6439 197.172 19.053 197.574 19.5455C197.983 20.0303 198.294 20.5076 198.506 20.9773H198.653V12.2273H203.483V35.5H198.71V32.7045H198.506C198.278 33.1894 197.956 33.6705 197.54 34.1477C197.131 34.6174 196.597 35.0076 195.938 35.3182C195.286 35.6288 194.491 35.7841 193.551 35.7841ZM195.085 31.9318C195.866 31.9318 196.525 31.7197 197.062 31.2955C197.608 30.8636 198.025 30.2614 198.312 29.4886C198.608 28.7159 198.756 27.8106 198.756 26.7727C198.756 25.7348 198.612 24.8333 198.324 24.0682C198.036 23.303 197.619 22.7121 197.074 22.2955C196.528 21.8788 195.866 21.6705 195.085 21.6705C194.29 21.6705 193.619 21.8864 193.074 22.3182C192.528 22.75 192.116 23.3485 191.835 24.1136C191.555 24.8788 191.415 25.7652 191.415 26.7727C191.415 27.7879 191.555 28.6856 191.835 29.4659C192.123 30.2386 192.536 30.8447 193.074 31.2841C193.619 31.7159 194.29 31.9318 195.085 31.9318Z" fill="black"/>
</svg>
